<svg width="100" height="100" viewBox="0 0 100 100" fill="none" xmlns="http://www.w3.org/2000/svg">
  <!-- Stylized Glass Box -->
  <rect x="20" y="20" width="60" height="70" rx="4" stroke="#D1D5DB" stroke-width="2"/>
  <path d="M20 30H80" stroke="#E5E7EB" stroke-width="1"/>
  <rect x="15" y="80" width="70" height="15" rx="2" fill="#F3F4F6" stroke="#D1D5DB" stroke-width="1"/>
  
  <!-- Bold Stylized R with "stacking" effect similar to original -->
  <!-- Back Layer -->
  <path d="M42 35V65M42 35H55C60.5 35 65 39.5 65 45C65 50.5 60.5 55 55 55H42M55 55L68 65" stroke="#9CA3AF" stroke-width="6" stroke-linecap="round" stroke-linejoin="round"/>
  <!-- Middle Layer -->
  <path d="M40 37V67M40 37H53C58.5 37 63 41.5 63 47C63 52.5 58.5 57 53 57H40M53 57L66 67" stroke="#4B5563" stroke-width="6" stroke-linecap="round" stroke-linejoin="round"/>
  <!-- Front Layer -->
  <path d="M38 39V69M38 39H51C56.5 39 61 43.5 61 49C61 54.5 56.5 59 51 59H38M51 59L64 69" stroke="#111827" stroke-width="6" stroke-linecap="round" stroke-linejoin="round"/>
</svg>
